<svg width="166" height="14" viewBox="0 0 166 14" fill="none" xmlns="http://www.w3.org/2000/svg">
<path d="M6.02 11.0028C6.45602 10.7433 6.89205 10.4838 7.32807 10.1724C7.76409 9.86098 8.2624 9.60148 8.69842 9.29008C9.75733 8.56348 10.8162 7.83689 11.8752 7.11029C11.626 7.42169 11.3146 7.73309 11.0654 8.04449C10.8162 8.35588 10.5671 8.61538 10.2556 8.92678C10.1311 9.08248 9.9442 9.23818 9.81962 9.39388C9.63275 9.54958 9.50818 9.75718 9.44589 9.96478C9.32131 10.1724 9.25902 10.3281 9.19673 10.5357C9.07215 10.8471 9.19673 11.2623 9.50818 11.4699C9.63275 11.5737 9.81962 11.6775 10.0065 11.7294C10.1934 11.7813 10.4425 11.7813 10.6294 11.7294C10.8785 11.6775 11.1277 11.6775 11.3768 11.6256C11.5637 11.5737 11.6883 11.5218 11.8752 11.4699C12.062 11.418 12.2489 11.3661 12.3735 11.2623C12.9341 11.0547 13.4324 10.7433 13.993 10.4319C14.5536 10.1205 15.1765 9.80908 15.7371 9.44578C16.3599 9.08248 16.9205 8.71918 17.4811 8.35588C18.0417 8.04449 18.5401 7.68119 19.0384 7.31789C18.9761 7.36979 18.9138 7.42169 18.9138 7.47359C18.4155 7.99259 17.9172 8.56348 17.4189 9.08248C17.1074 9.39388 16.796 9.70528 16.5468 10.0167C16.4222 10.1724 16.2977 10.38 16.1731 10.5876C16.1108 10.7433 16.0485 10.899 16.0485 11.0547C16.0485 11.2104 15.9862 11.3661 15.9239 11.5218C15.8616 11.7813 15.8616 11.9889 16.0485 12.1965C16.1731 12.3522 16.4222 12.5598 16.6714 12.6117C17.0451 12.6636 17.4189 12.7155 17.8549 12.7674C18.0417 12.7674 18.2286 12.8193 18.4155 12.7674C18.6023 12.7674 18.7892 12.7155 18.9761 12.7155C19.3498 12.6636 19.6613 12.5598 19.9727 12.456C20.3464 12.3522 20.6579 12.1965 20.9693 12.0927C22.3397 11.5218 23.71 10.8471 25.0181 10.1724C25.641 9.86098 26.2016 9.49768 26.8245 9.18628C26.4507 9.60148 26.0147 10.0167 25.641 10.4319C25.3918 10.6914 25.1427 10.9509 24.8935 11.2104C24.6444 11.4699 24.4575 11.6775 24.3329 11.9889C24.2083 12.2484 24.146 12.5079 24.0838 12.7674C24.0215 13.1307 24.0838 13.4421 24.3952 13.7016C24.5198 13.8054 24.7066 13.9092 24.8935 13.9611C25.0804 14.013 25.3295 14.013 25.5164 13.9611C25.641 13.9611 25.7656 13.9092 25.8278 13.9092C26.2016 13.8573 26.5753 13.8054 26.8868 13.7535C27.2605 13.7016 27.6342 13.5978 28.008 13.4421C28.7554 13.1826 29.4406 12.8712 30.1258 12.5598C31.4961 11.8851 32.8042 11.1585 34.1123 10.4319C34.2991 10.3281 34.486 10.2243 34.6729 10.0686C34.6729 10.0686 34.6729 10.1205 34.6106 10.1205C34.486 10.2762 34.3614 10.4838 34.2991 10.6395C34.1745 10.9509 34.2991 11.2623 34.3614 11.5737C34.486 12.0927 35.1712 12.3522 35.7941 12.2484C36.1678 12.1446 36.5415 12.0927 36.9153 11.9889C37.3513 11.8851 37.7873 11.7294 38.2233 11.5218C39.0954 11.2104 39.9051 10.7433 40.6526 10.3281C41.2755 10.0167 41.8361 9.65338 42.459 9.34198C43.6424 8.71918 44.7636 8.09639 45.9471 7.42169C46.57 7.05839 47.2552 6.64319 47.8781 6.27989C47.6289 6.53939 47.3175 6.85079 47.0683 7.11029C46.9438 7.21409 46.8192 7.36979 46.6946 7.47359C46.3832 7.73309 46.134 7.99259 45.8848 8.25208C45.6357 8.56348 45.5734 8.92678 45.5734 9.29008C45.5734 9.44578 45.6357 9.60148 45.6357 9.75718C45.6357 9.80908 45.698 9.91288 45.698 9.96478C45.7603 10.1205 45.8226 10.2243 45.8848 10.38C45.9471 10.5357 46.0717 10.6914 46.1963 10.8471C46.3832 11.0028 46.7569 11.1585 47.0683 11.1585C47.7535 11.1066 48.501 11.0547 49.2484 10.9509C49.9336 10.8471 50.6188 10.6395 51.2417 10.38C52.5497 9.91288 53.7955 9.34198 55.0413 8.71918C55.9133 8.30398 56.7854 7.83689 57.6574 7.36979C57.4706 7.57739 57.2214 7.73309 57.0345 7.94069C56.6608 8.30398 56.2248 8.66728 55.8511 9.03058C55.5396 9.29008 55.2905 9.54958 54.979 9.80908C54.543 10.2243 54.1693 10.6914 53.7955 11.1585C53.4841 11.5737 53.6709 12.3003 54.2315 12.5079C54.4184 12.5598 54.543 12.6636 54.7299 12.7155C54.9167 12.7674 55.1036 12.8193 55.2905 12.8712C55.6642 12.9231 56.0379 12.8712 56.4739 12.8193C56.8477 12.7674 57.2214 12.6117 57.5329 12.456C57.9689 12.3003 58.4049 12.0927 58.7786 11.8851C59.1524 11.7294 59.4638 11.5737 59.8375 11.418C60.2113 11.2623 60.5227 11.1066 60.8964 10.899C61.5193 10.5876 62.1422 10.2762 62.7028 9.96478C62.8897 9.86098 63.0766 9.75718 63.2011 9.65338C63.1388 9.80908 63.0143 9.91288 62.952 10.0686C62.7651 10.38 62.7028 10.7433 62.952 11.0547C63.2011 11.3661 63.5749 11.5218 64.0109 11.5218C64.3223 11.5218 64.5715 11.5737 64.8206 11.5737C65.0075 11.5737 65.1944 11.5218 65.3812 11.5218C65.5681 11.4699 65.755 11.4699 65.8795 11.418C66.2533 11.3142 66.5647 11.1585 66.9385 11.0547C67.2499 10.899 67.6236 10.7433 67.9351 10.5876C68.6203 10.2762 69.2431 9.91288 69.9283 9.60148C70.6135 9.23818 71.361 8.87488 72.0461 8.51158C73.4788 7.73309 74.8491 6.90269 76.2818 6.12419C76.5309 5.96849 76.7178 5.86469 76.967 5.70899C76.9047 5.76089 76.8424 5.81279 76.8424 5.86469C76.3441 6.38369 75.7835 6.95459 75.2852 7.52549C75.036 7.78499 74.7868 8.09639 74.4754 8.35588C74.164 8.71918 73.7902 9.03058 73.4788 9.34198C73.3542 9.49768 73.1673 9.70528 73.0428 9.91288C72.8559 10.1724 72.7313 10.4838 72.6067 10.7952C72.4822 11.0028 72.6067 11.3142 72.7313 11.5218C72.9182 11.7813 73.2919 11.9889 73.7279 11.9889C73.9148 11.9889 74.1017 11.9889 74.2262 11.9889C74.4131 11.9889 74.6 11.9889 74.7246 11.9889C75.1606 11.9889 75.5966 11.8851 76.0326 11.7813C76.4064 11.6775 76.7178 11.5737 77.0915 11.418C77.5276 11.2623 77.9013 11.1066 78.3373 10.899C79.8945 10.1724 81.3895 9.44578 82.8844 8.66728C84.317 7.88879 85.7497 7.11029 87.1823 6.27989C87.8675 5.86469 88.5527 5.44949 89.2379 5.08619L89.1756 5.13809C88.8018 5.55329 88.3658 5.96849 87.9921 6.38369C87.7429 6.64319 87.4938 6.90269 87.2446 7.16219C87.12 7.26599 87.0577 7.36979 86.9955 7.47359C86.9332 7.57739 86.8709 7.73309 86.8086 7.83689C86.7463 7.94069 86.7463 8.09638 86.8086 8.25208C86.8086 8.45968 86.9332 8.61538 86.9955 8.82298C87.1823 9.23818 87.6806 9.54958 88.2412 9.39388C88.9264 9.23818 89.6116 9.08248 90.2968 8.92678C90.9819 8.77108 91.6048 8.51158 92.2277 8.25208C93.0375 7.94069 93.8472 7.57739 94.5947 7.26599C95.5913 6.85079 96.5256 6.43559 97.5223 5.96849C98.4566 5.55329 99.3286 5.13809 100.263 4.72289C100.014 4.93049 99.7024 5.13809 99.4532 5.34569C98.7058 5.96849 97.896 6.53939 97.1485 7.16219C96.2765 7.83689 95.4667 8.51158 94.5947 9.18628C94.0964 9.60148 93.5981 10.0167 93.0998 10.4319C92.7883 10.6914 92.4146 10.9509 92.1031 11.2104C91.9786 11.3142 91.9163 11.418 91.854 11.5218C91.7917 11.6256 91.7294 11.7294 91.6671 11.8851C91.6048 11.9889 91.6048 12.1446 91.6048 12.2484C91.6048 12.456 91.6671 12.6117 91.6671 12.8193C91.6671 13.0269 91.7294 13.2345 91.9786 13.3902C92.2277 13.5978 92.6015 13.6497 92.9129 13.5978C93.4735 13.494 94.0964 13.3902 94.657 13.2864C95.2176 13.1826 95.7782 13.0269 96.3388 12.8193C97.5223 12.4041 98.7058 11.937 99.8269 11.418C100.325 11.2104 100.886 10.9509 101.384 10.6914C101.758 10.4838 102.194 10.2762 102.568 10.1205C103.004 9.91288 103.44 9.70528 103.938 9.44578C103.813 9.54958 103.627 9.65338 103.502 9.75718C103.315 9.86098 103.128 9.96478 103.004 10.1205C102.879 10.2243 102.817 10.3281 102.692 10.4319C102.63 10.5357 102.568 10.6395 102.505 10.7952C102.443 10.9509 102.443 11.1585 102.505 11.3142C102.505 11.4699 102.568 11.5737 102.63 11.6775C102.817 11.9889 103.128 12.2484 103.564 12.4041C104.125 12.5598 104.685 12.5079 105.308 12.3522C105.62 12.3003 105.931 12.1446 106.243 12.0408C106.554 11.937 106.803 11.8332 107.115 11.7294C107.987 11.418 108.859 11.1066 109.731 10.7952C110.665 10.4319 111.537 10.0167 112.409 9.65338C112.97 9.39388 113.53 9.13438 114.091 8.87488C115.337 8.30398 116.583 7.68119 117.828 7.05839C118.638 6.64319 119.51 6.17609 120.32 5.76089C120.009 6.02039 119.759 6.33179 119.448 6.59129C119.136 6.85079 118.825 7.16219 118.514 7.42169C118.202 7.73309 117.891 8.04449 117.579 8.35588C117.268 8.66728 117.081 9.03058 116.832 9.39388C116.458 9.91288 116.77 10.6395 117.517 10.7952C117.766 10.8471 118.015 10.899 118.327 10.9509C118.514 11.0028 118.7 11.0028 118.887 11.0028C119.074 11.0028 119.261 10.9509 119.448 10.9509C119.822 10.899 120.133 10.7952 120.507 10.6395C120.818 10.5357 121.192 10.38 121.503 10.2243C122.126 9.96478 122.687 9.70528 123.31 9.44578C124.057 9.13438 124.742 8.77108 125.49 8.40778C126.113 8.09639 126.736 7.78499 127.359 7.47359C127.296 7.52549 127.234 7.57739 127.172 7.62929C126.86 7.88879 126.549 8.20018 126.237 8.51158C125.926 8.82298 125.677 9.18628 125.677 9.60148C125.677 9.86098 125.801 10.0167 125.926 10.2243C125.988 10.38 126.3 10.6395 126.487 10.6914C126.549 10.6914 126.611 10.7433 126.611 10.7433C126.798 10.8471 126.985 10.899 127.234 10.899C127.483 10.899 127.732 10.899 127.919 10.8471C128.418 10.7433 128.854 10.5876 129.29 10.38C129.539 10.2762 129.788 10.1724 130.037 10.0686C130.286 9.96478 130.598 9.80908 130.847 9.70528C131.345 9.44578 131.906 9.18628 132.404 8.92678C132.591 8.82298 132.778 8.71918 132.965 8.61538C132.84 8.71918 132.715 8.87488 132.591 8.97868C132.404 9.18628 132.155 9.39388 131.968 9.60148C131.657 9.91288 131.345 10.1724 131.034 10.4838C130.722 10.7952 130.473 11.1066 130.224 11.418C130.037 11.6256 130.037 11.937 130.099 12.1446C130.162 12.3522 130.348 12.6117 130.598 12.7155C130.722 12.7674 130.847 12.8193 131.034 12.8712C131.221 12.9231 131.345 12.975 131.532 13.0269C131.719 13.0788 131.843 13.0788 132.03 13.0788C132.342 13.0788 132.591 13.0269 132.84 13.0269C133.276 12.975 133.774 12.8193 134.21 12.6636C134.646 12.5079 135.082 12.3003 135.518 12.1446C135.892 11.9889 136.266 11.8851 136.64 11.7294C137.076 11.5737 137.574 11.3661 138.01 11.1585C138.757 10.8471 139.505 10.5357 140.19 10.1724C140.751 9.91288 141.249 9.65338 141.81 9.39388C141.747 9.44578 141.747 9.49768 141.685 9.54958C141.374 9.91288 141.498 10.4838 141.872 10.7952C142.183 11.0547 142.557 11.3142 142.993 11.4699C143.242 11.5218 143.491 11.5218 143.741 11.5218C144.114 11.5218 144.426 11.418 144.799 11.3142C145.049 11.2623 145.298 11.1585 145.485 11.0547C145.734 10.9509 146.045 10.899 146.294 10.7952C146.917 10.5876 147.478 10.3281 148.101 10.0167C148.973 9.60148 149.845 9.13438 150.717 8.66728C150.655 8.82298 150.655 8.97868 150.655 9.13438C150.655 9.29008 150.717 9.49768 150.779 9.65338C150.841 9.75718 150.841 9.80908 150.904 9.91288C150.966 10.0167 151.091 10.1205 151.153 10.2243C151.34 10.38 151.651 10.4838 151.9 10.5357C152.025 10.5357 152.15 10.5357 152.212 10.5876C152.336 10.5876 152.523 10.5876 152.648 10.5876C152.959 10.5357 153.208 10.5357 153.458 10.4319C154.454 10.2243 155.451 9.80908 156.385 9.39388C157.444 8.92678 158.503 8.40778 159.5 7.88879C160.247 7.52549 160.932 7.11029 161.68 6.74699C161.742 6.69509 161.804 6.69509 161.867 6.64319C161.867 6.69509 161.804 6.74699 161.804 6.74699C161.431 7.26599 161.68 7.99259 162.303 8.30398C162.614 8.45968 162.988 8.51158 163.362 8.40778C163.673 8.35588 164.047 8.14828 164.171 7.88879C164.42 7.36979 164.67 6.90269 164.919 6.38369C165.043 6.17609 165.106 5.91659 165.23 5.70899C165.292 5.55329 165.355 5.44949 165.417 5.29379C165.542 4.98239 165.604 4.61909 165.604 4.25579C165.604 3.99629 165.479 3.73679 165.292 3.58109C164.981 3.32159 164.545 3.21779 164.171 3.32159C163.798 3.42539 163.424 3.52919 163.112 3.63299C162.801 3.73679 162.552 3.94439 162.24 4.10009C161.929 4.25579 161.68 4.41149 161.368 4.51529C160.932 4.77479 160.434 4.98239 159.998 5.24189C159.375 5.55329 158.752 5.86469 158.192 6.17609C157.506 6.53939 156.821 6.85079 156.074 7.21409C155.7 7.36979 155.389 7.52549 155.015 7.68119C154.828 7.78499 154.641 7.83689 154.454 7.94069C154.953 7.42169 155.513 6.90269 156.011 6.38369C156.821 5.60519 157.631 4.87859 158.378 4.10009C158.503 3.99629 158.628 3.84059 158.69 3.68489C158.752 3.42539 158.752 3.16589 158.565 2.95829C158.441 2.75069 158.129 2.595 157.88 2.4912C157.631 2.4393 157.195 2.4393 157.008 2.595C155.762 3.37349 154.454 4.15199 153.208 4.87859C152.461 5.34569 151.651 5.76089 150.904 6.22799C149.969 6.74699 149.035 7.26599 148.038 7.78499C147.416 8.09639 146.793 8.40778 146.17 8.66728C146.419 8.51158 146.606 8.30398 146.855 8.14828C147.353 7.73309 147.852 7.36979 148.35 7.00649C149.533 6.12419 150.655 5.18999 151.838 4.35959C151.9 4.30769 151.963 4.25579 152.025 4.20389C152.461 3.84059 152.461 3.21779 152.025 2.85449C151.838 2.6988 151.527 2.595 151.215 2.595C150.904 2.595 150.655 2.6988 150.405 2.85449C150.343 2.90639 150.281 2.95829 150.219 3.01019C149.596 3.37349 148.911 3.73679 148.288 4.04819C147.789 4.30769 147.229 4.61909 146.73 4.87859C145.609 5.44949 144.55 6.02039 143.429 6.59129C143.118 6.74699 142.744 6.90269 142.432 7.05839C141.623 7.42169 140.875 7.83689 140.066 8.20018C139.443 8.51158 138.82 8.82298 138.135 9.08248C137.325 9.44578 136.515 9.80908 135.705 10.1205C135.332 10.2762 134.958 10.38 134.646 10.5357C134.397 10.6395 134.086 10.7433 133.837 10.8471C134.148 10.5357 134.46 10.2243 134.833 9.91288C135.207 9.54958 135.581 9.18628 135.954 8.82298C136.515 8.30398 137.076 7.83689 137.574 7.31789C138.01 6.95459 138.446 6.53939 138.882 6.17609C139.193 5.86469 139.505 5.55329 139.816 5.24189C140.066 4.98239 140.315 4.67099 140.564 4.35959C140.751 4.10009 140.751 3.73679 140.564 3.47729C140.439 3.32159 140.315 3.21779 140.19 3.16589C139.941 3.06209 139.629 3.01019 139.38 3.06209C139.193 3.11399 139.007 3.16589 138.882 3.21779C138.633 3.32159 138.446 3.42539 138.197 3.52919C137.948 3.68489 137.699 3.84059 137.449 3.94439C137.013 4.20389 136.64 4.41149 136.204 4.67099C135.581 5.03429 134.896 5.39759 134.273 5.76089C133.525 6.17609 132.715 6.59129 131.968 7.00649C131.532 7.21409 131.158 7.42169 130.722 7.62929C130.66 7.62929 130.66 7.68119 130.598 7.68119C131.096 7.26599 131.532 6.85079 132.03 6.43559C132.466 6.02039 132.965 5.60519 133.401 5.18999C133.774 4.87859 134.086 4.56719 134.46 4.25579C134.833 3.89249 135.207 3.52919 135.643 3.16589C135.768 3.06209 135.892 2.90639 135.954 2.7507C136.017 2.4912 136.017 2.2317 135.83 2.0241C135.581 1.6608 135.02 1.4532 134.522 1.6089C134.335 1.6608 134.086 1.7127 133.899 1.8165C133.587 1.9722 133.276 2.1279 133.027 2.2836C132.84 2.3874 132.591 2.4912 132.404 2.595C131.968 2.80259 131.532 3.06209 131.096 3.26969C130.286 3.68489 129.476 4.15199 128.667 4.56719C127.67 5.08619 126.611 5.60519 125.615 6.12419C124.805 6.53939 123.995 6.90269 123.185 7.31789C122.562 7.62929 121.939 7.88879 121.254 8.14828C121.005 8.25208 120.756 8.35588 120.445 8.51158C120.631 8.35588 120.756 8.20018 120.943 8.04449C121.192 7.78499 121.503 7.52549 121.753 7.26599C122.126 6.90269 122.5 6.53939 122.874 6.17609C123.434 5.60519 123.995 5.08619 124.556 4.51529C124.805 4.25579 125.054 3.99629 125.365 3.78869C125.677 3.52919 125.926 3.26969 126.175 2.95829C126.424 2.69879 126.549 2.3874 126.673 2.076C126.736 1.7646 126.673 1.4013 126.362 1.1937C126.051 0.934198 125.428 0.830398 125.054 1.038C122.438 2.3874 119.822 3.78869 117.143 5.13809C116.707 5.39759 116.209 5.60519 115.773 5.81279C115.025 6.17609 114.34 6.48749 113.593 6.85079C111.537 7.83689 109.482 8.77108 107.364 9.54958C107.738 9.29008 108.049 9.03058 108.423 8.82298C109.419 8.09639 110.416 7.42169 111.413 6.74699C112.596 5.91659 113.78 5.08619 114.963 4.25579C115.524 3.84059 116.084 3.42539 116.707 3.06209C117.081 2.80259 117.455 2.5431 117.828 2.2836C118.202 2.076 118.576 1.7646 118.95 1.5051C119.323 1.2456 119.323 0.778499 119.136 0.467099C119.012 0.2595 118.763 0.1038 118.514 0.0518999C118.202 0 118.078 0 118.015 0C117.828 0 117.642 0.0518999 117.517 0.1038C117.019 0.415199 116.583 0.674699 116.084 0.986098C115.897 1.1418 115.711 1.2456 115.524 1.4013C114.963 1.7127 114.403 2.0241 113.78 2.3355C113.094 2.6988 112.409 3.06209 111.724 3.47729C110.229 4.30769 108.672 5.08619 107.177 5.91659C106.679 6.17609 106.18 6.43559 105.682 6.69509C104.81 7.11029 103.938 7.52549 103.128 7.94069C102.194 8.40778 101.322 8.82298 100.388 9.29008C99.9515 9.49768 99.5155 9.70528 99.0795 9.91288C97.9583 10.4319 96.8994 10.899 95.7159 11.3142C95.2799 11.4699 94.7816 11.5737 94.3455 11.7294L94.4078 11.6775C94.5947 11.5218 94.7816 11.3661 94.9684 11.2104C95.4044 10.8471 95.7782 10.4838 96.2142 10.1205C97.0862 9.39388 97.9583 8.71918 98.8303 7.99259C99.6401 7.31789 100.45 6.69509 101.26 6.07229C101.633 5.81279 101.945 5.50139 102.319 5.24189C102.879 4.82669 103.44 4.35959 103.938 3.94439C104.187 3.73679 104.436 3.52919 104.623 3.26969C104.872 3.01019 105.059 2.7507 105.246 2.4912C105.682 1.9722 104.997 1.1937 104.249 1.4013C103.689 1.557 103.191 1.7127 102.63 1.9203C102.256 2.076 101.882 2.2836 101.509 2.4393C100.948 2.69879 100.388 2.95829 99.7647 3.21779C98.8926 3.58109 98.0829 3.94439 97.2108 4.35959C96.4634 4.67099 95.7159 5.03429 94.9061 5.34569C93.4735 5.96849 92.0408 6.59129 90.6082 7.11029C90.2968 7.21409 89.9853 7.31789 89.6116 7.42169C89.6739 7.31789 89.7985 7.21409 89.8607 7.11029C90.2345 6.69509 90.6705 6.27989 91.0442 5.86469C91.4803 5.44949 91.854 5.03429 92.29 4.56719C92.5392 4.30769 92.7883 4.04819 93.0375 3.73679C93.2866 3.52919 93.4735 3.26969 93.6604 3.01019C93.9718 2.6988 94.1587 2.3355 94.3455 1.9722C94.5324 1.7127 94.5324 1.4013 94.3455 1.1418C94.1587 0.830398 93.6604 0.622799 93.2243 0.778499C92.9129 0.882298 92.6015 0.986098 92.29 1.1418C92.0409 1.2456 91.854 1.4013 91.6048 1.557C91.3557 1.7127 91.0442 1.8684 90.7951 2.0241C90.2968 2.3355 89.7985 2.595 89.3001 2.85449C88.2412 3.47729 87.2446 4.04819 86.1857 4.61909C85.1268 5.18999 84.0679 5.76089 83.009 6.33179C82.0123 6.85079 80.9534 7.36979 79.9568 7.88879C79.2716 8.20018 78.5865 8.51158 77.9013 8.82298C77.2161 9.13438 76.4686 9.49768 75.7835 9.75718C75.7212 9.75718 75.7212 9.75718 75.6589 9.80908C75.7835 9.65338 75.9703 9.49768 76.0949 9.34198C76.4686 8.97868 76.7801 8.56348 77.1538 8.20018C77.7144 7.62929 78.275 7.05839 78.7733 6.48749C79.2094 6.02039 79.7077 5.55329 80.1437 5.03429C80.5174 4.67099 80.8289 4.30769 81.2026 3.89249C81.7009 3.37349 82.1992 2.80259 82.6352 2.2317C82.8221 2.0241 82.8221 1.7646 82.7598 1.5051C82.6975 1.2975 82.5107 1.038 82.2615 0.934198C82.0746 0.882298 81.9501 0.830398 81.7632 0.778499C81.3895 0.726599 81.078 0.778499 80.7666 0.934198C80.3306 1.1418 80.0191 1.4013 79.6454 1.6608C78.1504 2.5431 76.6555 3.42539 75.1606 4.30769C74.2262 4.82669 73.2919 5.34569 72.3576 5.86469C71.1741 6.53939 69.9283 7.16219 68.6825 7.78499C68.2465 7.99259 67.8105 8.20019 67.3745 8.40778C67.6236 8.20019 67.8728 7.99259 68.1219 7.73309C68.6825 7.21409 69.2431 6.74699 69.866 6.22799C70.2398 5.91659 70.6135 5.60519 70.9249 5.29379C71.2364 5.03429 71.5478 4.72289 71.8593 4.41149C72.1084 4.15199 72.2953 3.84059 72.5445 3.58109C72.7936 3.21779 72.7313 2.69879 72.3576 2.3874C72.233 2.2836 72.0461 2.1798 71.8593 2.1279C71.6101 2.076 71.1741 2.076 70.9872 2.2317C70.2398 2.6988 69.4923 3.16589 68.8071 3.63299C68.1842 4.04819 67.4991 4.46339 66.8139 4.87859C66.2533 5.18999 65.755 5.55329 65.1944 5.86469C64.9452 6.02039 64.6961 6.17609 64.4469 6.33179C63.4503 6.90269 62.4537 7.47359 61.457 7.99259C60.7719 8.35588 60.0867 8.71918 59.3392 9.08248C58.8409 9.34198 58.2803 9.60148 57.782 9.80908C58.0934 9.49768 58.4049 9.18628 58.7786 8.87488C59.4015 8.25208 60.0867 7.68119 60.7719 7.05839C61.3325 6.53939 61.9554 6.02039 62.516 5.50139C62.8274 5.18999 63.2011 4.93049 63.5126 4.61909C64.1978 3.99629 65.0075 3.52919 65.5681 2.80259C65.8173 2.4393 65.755 1.9722 65.3812 1.6608C65.0075 1.3494 64.4469 1.2975 64.0109 1.5051C62.3291 2.4393 60.585 3.32159 58.9032 4.20389C58.0312 4.67099 57.1591 5.08619 56.2871 5.55329C55.2905 6.07229 54.3561 6.53939 53.3595 7.00649C52.7989 7.26599 52.3006 7.47359 51.74 7.73309C51.1794 7.99259 50.6188 8.20019 49.9959 8.40778C49.7467 8.51158 49.4976 8.56348 49.2484 8.61538C48.937 8.71918 48.5633 8.77108 48.2518 8.82298C48.1895 8.82298 48.1895 8.82298 48.1272 8.82298C48.3141 8.66728 48.4387 8.51158 48.6255 8.35588C48.8747 8.09639 49.1239 7.83689 49.4353 7.57739C49.809 7.21409 50.1828 6.85079 50.4942 6.48749C50.9925 5.96849 51.4908 5.50139 51.9891 4.98239C52.4252 4.51529 52.9235 4.10009 53.4218 3.63299C53.7332 3.32159 54.0447 3.01019 54.3561 2.6469C54.6053 2.3355 54.8544 2.0241 55.1036 1.7127C55.415 1.3494 55.2905 0.830398 54.9167 0.570899C54.543 0.2595 53.9824 0.2076 53.5464 0.415199C53.2349 0.570899 52.9235 0.726599 52.612 0.882298C52.4252 1.3494 52.0514 1.557 51.6777 1.8165C51.3663 2.0241 51.0548 2.1798 50.7434 2.3874C50.0582 2.80259 49.3107 3.21779 48.6255 3.68489C47.5044 4.35959 46.3832 5.03429 45.1997 5.70899C44.203 6.27989 43.1441 6.85079 42.1475 7.42169C41.4623 7.78499 40.8394 8.14828 40.1543 8.51158C39.7805 8.71918 39.4068 8.87488 39.0954 9.08248C38.8462 9.23818 38.5348 9.34198 38.2856 9.49768C40.0297 7.68119 41.8361 5.91659 43.6424 4.15199C43.8293 3.94439 43.9539 3.73679 43.9539 3.47729C43.9539 3.26969 43.8293 3.01019 43.6424 2.85449C43.2064 2.4912 42.5835 2.5431 42.1475 2.85449C41.7738 3.11399 41.4623 3.42539 41.0886 3.63299C40.9017 3.78869 40.6526 3.89249 40.4657 4.04819C40.092 4.30769 39.7805 4.51529 39.4068 4.77479C38.597 5.29379 37.8496 5.81279 37.0398 6.38369C36.0432 7.00649 35.0466 7.62929 34.05 8.25208C33.2402 8.77108 32.4305 9.23818 31.5584 9.70528C30.8732 10.0686 30.1881 10.38 29.5029 10.7433C28.8177 11.1066 28.1325 11.418 27.3851 11.6775C27.7588 11.2623 28.1948 10.7952 28.5686 10.38C29.3783 9.49768 30.2503 8.66728 31.0601 7.78499C31.683 7.16219 32.3682 6.53939 32.9911 5.91659C33.3025 5.60519 33.6762 5.29379 33.9877 4.98239C34.1745 4.77479 34.4237 4.56719 34.6729 4.41149C34.7351 4.35959 34.8597 4.30769 34.922 4.25579C35.1712 4.10009 35.358 3.94439 35.6072 3.78869C35.8563 3.63299 36.0432 3.42539 36.2301 3.26969C36.3547 3.16589 36.4792 3.01019 36.4792 2.85449C36.5415 2.6469 36.5415 2.3874 36.3547 2.1798C36.2301 1.9722 35.9809 1.8165 35.7318 1.7646C35.4826 1.7127 35.1089 1.7127 34.922 1.8684C34.7351 2.0241 34.486 2.1279 34.2991 2.2317C33.9877 2.4393 33.7385 2.595 33.4894 2.80259C33.3025 2.95829 33.1156 3.11399 32.9288 3.32159C32.555 3.58109 32.1813 3.78869 31.8699 4.04819C31.1224 4.51529 30.3749 4.98239 29.6275 5.44949C29.0046 5.81279 28.3817 6.17609 27.7588 6.53939C26.949 7.00649 26.2016 7.47359 25.3918 7.88879C24.3952 8.45968 23.3986 8.97868 22.3397 9.49768C21.8414 9.75718 21.343 9.96478 20.7824 10.2243C20.2218 10.4319 19.7235 10.6914 19.1629 10.899C18.8515 11.0028 18.5401 11.0547 18.2909 11.1585C18.3532 11.1066 18.4155 11.0547 18.4155 10.9509C18.8515 10.4838 19.2252 10.0686 19.6613 9.60148C19.9727 9.23818 20.2841 8.87488 20.6579 8.51158C21.343 7.78499 21.9659 7.11029 22.6511 6.38369C23.0871 5.91659 23.5854 5.39759 24.0215 4.93049C24.2706 4.67099 24.5198 4.41149 24.7689 4.15199C25.1427 3.73679 25.5164 3.32159 25.8278 2.85449C26.077 2.5431 25.9524 2.076 25.641 1.8165C25.3295 1.557 24.7689 1.4532 24.3952 1.6608C24.0215 1.8684 23.71 2.0241 23.3986 2.2836C23.2117 2.4393 23.0248 2.5431 22.7757 2.69879C22.4642 2.90639 22.0905 3.16589 21.7791 3.37349C21.0316 3.84059 20.2841 4.35959 19.5367 4.82669C18.6023 5.39759 17.7303 5.96849 16.796 6.53939C16.0485 7.00649 15.2387 7.47359 14.4913 7.94069C14.2421 8.09639 13.9307 8.25209 13.6815 8.40778C13.9307 8.14829 14.1798 7.88879 14.3667 7.62929C14.8027 7.11029 15.301 6.59129 15.7371 6.07229C15.9862 5.76089 16.2977 5.44949 16.5468 5.13809C16.8583 4.82669 17.1074 4.46339 17.3566 4.10009C17.668 3.68489 17.8549 3.21779 18.0417 2.80259C18.104 2.6469 18.104 2.4912 18.0417 2.2836C17.9795 2.1279 17.9172 1.9722 17.7303 1.8684C17.3566 1.557 16.796 1.5051 16.3599 1.7127C16.0485 1.8684 15.6748 2.0241 15.3633 2.2317C14.9896 2.4912 14.6159 2.7507 14.2421 3.01019C13.9307 3.21779 13.6815 3.42539 13.3701 3.63299C12.8718 3.94439 12.4357 4.30769 11.9374 4.61909C10.2556 5.76089 8.63613 6.95459 6.95433 8.04449C6.39374 8.40778 5.89542 8.71918 5.33483 9.08248C5.08567 9.23818 4.83652 9.39388 4.52507 9.54958C4.77423 9.23818 4.96109 8.92678 5.21025 8.61538C5.64627 7.99259 6.08229 7.36979 6.5806 6.74699C7.01662 6.17609 7.39036 5.60519 7.82638 5.03429C8.07553 4.72289 8.2624 4.41149 8.51156 4.04819C8.76071 3.68489 9.07215 3.37349 9.25902 2.95829C9.32131 2.75069 9.44589 2.5431 9.44589 2.3355C9.44589 2.1798 9.3836 2.0241 9.3836 1.8684C9.32131 1.6089 9.00987 1.3494 8.69842 1.2975C8.38698 1.2456 7.95096 1.2975 7.7018 1.5051C6.76747 2.3874 5.83314 3.32159 4.8988 4.20389C4.8988 3.99629 4.77423 3.99629 4.71194 3.99629C4.46278 3.99629 4.15134 4.10009 4.02676 4.25579C3.46616 4.82669 2.90556 5.34569 2.40725 5.91659C1.78436 6.59129 1.16148 7.31789 0.538587 7.99259C0.351721 8.20018 0.351721 8.61538 0.538587 8.82298C0.725454 9.08248 1.0369 9.23818 1.41063 9.23818C1.53521 9.23818 1.72207 9.23818 1.84665 9.18628C2.03352 9.13438 2.22039 9.08248 2.34496 9.03058C2.1581 9.29008 1.90894 9.49768 1.78436 9.80908C1.65979 10.0167 1.5975 10.2243 1.53521 10.4319C1.47292 10.6914 1.47292 10.9509 1.47292 11.1585C1.47292 11.7813 2.22039 12.2484 2.96785 12.0927C3.52845 11.937 4.08905 11.8332 4.64965 11.6256C5.08567 11.5218 5.52169 11.2623 6.02 11.0028Z" fill="#BBA7E3"/>
</svg>
